# xmcd
#
# Track frame offsets:
# 150
# 21805
# 43870
# 64610
# 81866
# 98321
# 116627
# 135330
# 153960
# 170107
# 186347
# 205870
# 223615
# 243220
# 266683
#
# Disc length: 3833 seconds
#
#
# Revision: 0
# Processed by: cddbd v1.5.2PL0 Copyright (c) Steve Scherf et al.
# Submitted via: FreeRIP 2.951 
#
DISCID=c90ef70f
DTITLE=Steve Grace - Liberty Road
DYEAR=1992
DGENRE=Contemporary Christian
TTITLE0=Liberty Road
TTITLE1=Song For America
TTITLE2=Droughtland Rain
TTITLE3=Living For Love
TTITLE4=Texas
TTITLE5=Burning Town
TTITLE6=Somebody
TTITLE7=Things That Really Matter
TTITLE8=Crazy Road Of Life
TTITLE9=Waiting For You
TTITLE10=Long Live Your Dreams
TTITLE11=Long Road To Glory
TTITLE12=On The Edge
TTITLE13=A Cry In The Wilderness
TTITLE14=The Outlaw
EXTD=
EXTT0=
EXTT1=
EXTT2=
EXTT3=
EXTT4=
EXTT5=
EXTT6=
EXTT7=
EXTT8=
EXTT9=
EXTT10=
EXTT11=
EXTT12=
EXTT13=
EXTT14=
PLAYORDER=
